<?xml version="1.0" encoding="utf-8"?>
<!-- Generator: Adobe Illustrator 16.0.0, SVG Export Plug-In . SVG Version: 6.00 Build 0)  -->
<!DOCTYPE svg PUBLIC "-//W3C//DTD SVG 1.1//EN" "http://www.w3.org/Graphics/SVG/1.1/DTD/svg11.dtd">
<svg version="1.1" id="Ebene_1" xmlns="http://www.w3.org/2000/svg" xmlns:xlink="http://www.w3.org/1999/xlink" x="0px" y="0px"
	 width="10px" height="10px" viewBox="0 0 10 10" enable-background="new 0 0 10 10" xml:space="preserve">
<g opacity="0.5">
	<path fill="#940400" d="M5,9.5C2.519,9.5,0.5,7.481,0.5,5S2.519,0.5,5,0.5S9.5,2.519,9.5,5S7.481,9.5,5,9.5z"/>
	<path fill="#3F1800" d="M5,1c2.206,0,4,1.794,4,4c0,2.206-1.794,4-4,4C2.794,9,1,7.206,1,5C1,2.794,2.794,1,5,1 M5,0
		C2.239,0,0,2.239,0,5c0,2.762,2.239,5,5,5c2.762,0,5-2.238,5-5C10,2.239,7.762,0,5,0L5,0z"/>
</g>
</svg>
