<?xml version="1.0" encoding="utf-8"?>
<!-- Generator: Adobe Illustrator 16.0.0, SVG Export Plug-In . SVG Version: 6.00 Build 0)  -->
<!DOCTYPE svg PUBLIC "-//W3C//DTD SVG 1.1//EN" "http://www.w3.org/Graphics/SVG/1.1/DTD/svg11.dtd">
<svg version="1.1" id="Ebene_1" xmlns="http://www.w3.org/2000/svg" xmlns:xlink="http://www.w3.org/1999/xlink" x="0px" y="0px"
	 width="20px" height="20px" viewBox="0 0 20 20" enable-background="new 0 0 20 20" xml:space="preserve">
<circle fill="#FFFFFF" cx="10" cy="9.578" r="8.562"/>
<path d="M9.946,0.473c-5.029,0-9.105,4.077-9.105,9.105c0,5.029,4.076,9.105,9.105,9.105s9.105-4.076,9.105-9.105
	C19.051,4.55,14.975,0.473,9.946,0.473z M9.946,15.033c-3.488,0-7-2.294-7.991-5.455c0.99-3.161,4.503-5.455,7.991-5.455
	s7,2.294,7.992,5.455C16.945,12.739,13.434,15.033,9.946,15.033z"/>
<path d="M9.946,6.252c-1.837,0-3.326,1.489-3.326,3.326s1.489,3.326,3.326,3.326c1.836,0,3.326-1.489,3.326-3.326
	C13.271,7.742,11.782,6.252,9.946,6.252z M9.946,10.996c-0.783,0-1.417-0.635-1.417-1.418c0-0.783,0.635-1.417,1.417-1.417
	c0.783,0,1.417,0.635,1.417,1.417C11.363,10.361,10.729,10.996,9.946,10.996z"/>
</svg>
