<?xml version="1.0" encoding="utf-8"?>
<!-- Generator: Adobe Illustrator 16.0.0, SVG Export Plug-In . SVG Version: 6.00 Build 0)  -->
<!DOCTYPE svg PUBLIC "-//W3C//DTD SVG 1.1//EN" "http://www.w3.org/Graphics/SVG/1.1/DTD/svg11.dtd">
<svg version="1.1" id="Ebene_1" xmlns="http://www.w3.org/2000/svg" xmlns:xlink="http://www.w3.org/1999/xlink" x="0px" y="0px"
	 width="30px" height="30px" viewBox="0 0 30 30" enable-background="new 0 0 30 30" xml:space="preserve">
<circle fill="#FFFFFF" cx="10" cy="19.578" r="8.562"/>
<path d="M9.946,10.473c-5.029,0-9.105,4.077-9.105,9.105c0,5.029,4.076,9.105,9.105,9.105s9.105-4.076,9.105-9.105
	C19.051,14.55,14.975,10.473,9.946,10.473z M9.946,25.033c-3.488,0-7-2.294-7.991-5.455c0.99-3.161,4.503-5.455,7.991-5.455
	s7,2.294,7.991,5.455C16.946,22.739,13.434,25.033,9.946,25.033z"/>
<path d="M9.946,16.252c-1.837,0-3.326,1.489-3.326,3.326c0,1.837,1.489,3.326,3.326,3.326c1.836,0,3.326-1.489,3.326-3.326
	C13.271,17.742,11.782,16.252,9.946,16.252z M9.946,20.996c-0.783,0-1.417-0.635-1.417-1.418c0-0.783,0.635-1.417,1.417-1.417
	s1.417,0.635,1.417,1.417C11.363,20.361,10.729,20.996,9.946,20.996z"/>
<rect x="5.5" y="0.5" fill="#BF0000" stroke="#000000" stroke-miterlimit="10" width="24" height="15"/>
<text transform="matrix(1 0 0 1 10 10)" fill="#FFFFFF" font-family="'MyriadPro-Regular'" font-size="8">NEW</text>
</svg>
